<svg width="32" height="32" viewBox="0 0 32 32" fill="none" xmlns="http://www.w3.org/2000/svg">
  <circle cx="16" cy="16" r="16" fill="#2775CA"/>
  <path d="M21.12 14.867c0-2.646-1.6-3.547-4.8-3.947-2.293-.32-2.773-.96-2.773-2.133 0-1.174.707-1.92 2.453-1.92 1.44 0 2.267.48 2.667 1.654.08.266.267.453.533.453h1.2c.333 0 .587-.267.587-.6v-.053c-.24-1.787-1.573-3.281-3.6-3.601V3.533c0-.32-.267-.587-.587-.587h-1.227a.589.589 0 00-.586.587v1.147C12.587 5.053 11 6.627 11 9.013c0 2.614 1.6 3.521 4.8 3.92 2.187.387 2.773.921 2.773 2.147 0 1.4-.96 2.213-2.747 2.213-2.106 0-2.853-.893-3.026-2.12-.027-.32-.294-.533-.614-.533h-1.227a.589.589 0 00-.586.587v.053c.213 2.094 1.36 3.547 4.066 3.974v1.147c0 .32.267.586.587.586h1.227c.32 0 .586-.266.586-.586v-1.134c2.4-.373 4.28-1.947 4.28-4.4z" fill="#fff"/>
  <path d="M9.44 19.947c-1.307-.494-2.2-.908-2.2-1.974 0-.933.706-1.6 1.786-1.6s1.707.56 1.974 1.388a.58.58 0 00.533.359h.24c.32 0 .574-.267.534-.587-.148-1.093-.786-2.08-1.894-2.507v-.533a.476.476 0 00-.48-.48h-.346a.476.476 0 00-.48.48v.533c-1.36.467-2.24 1.654-2.24 3.027 0 1.654.974 2.454 2.827 3.081 1.333.48 1.92.986 1.92 1.973 0 1.04-.826 1.76-1.973 1.76-1.307 0-1.974-.64-2.214-1.653a.57.57 0 00-.56-.44h-.213a.482.482 0 00-.48.573c.24 1.307 1.04 2.347 2.347 2.747v.533c0 .267.213.48.48.48h.346c.267 0 .48-.213.48-.48v-.533c1.414-.427 2.374-1.68 2.374-3.12 0-1.734-1-2.534-2.76-3.027z" fill="#fff"/>
  <path d="M24.56 19.947c-1.307-.494-2.2-.908-2.2-1.974 0-.933.706-1.6 1.786-1.6s1.707.56 1.974 1.388a.58.58 0 00.533.359h.24c.32 0 .574-.267.534-.587-.148-1.093-.786-2.08-1.894-2.507v-.533a.476.476 0 00-.48-.48h-.346a.476.476 0 00-.48.48v.533c-1.36.467-2.24 1.654-2.24 3.027 0 1.654.974 2.454 2.827 3.081 1.333.48 1.92.986 1.92 1.973 0 1.04-.826 1.76-1.973 1.76-1.307 0-1.974-.64-2.214-1.653a.57.57 0 00-.56-.44h-.213a.482.482 0 00-.48.573c.24 1.307 1.04 2.347 2.347 2.747v.533c0 .267.213.48.48.48h.346c.267 0 .48-.213.48-.48v-.533c1.414-.427 2.374-1.68 2.374-3.12 0-1.734-1-2.534-2.76-3.027z" fill="#fff"/>
</svg>
