<svg width="32" height="32" viewBox="0 0 32 32" fill="none" xmlns="http://www.w3.org/2000/svg">
  <circle cx="16" cy="16" r="16" fill="#2D374B"/>
  <path d="M16.175 7C17.336 7 18.378 7.591 18.926 8.598L23.75 17.448C24.336 18.54 24.336 19.888 23.75 20.988L21.269 25.412C20.69 26.504 19.523 27.167 18.249 27.167H13.75C12.476 27.167 11.308 26.504 10.722 25.403L8.242 20.979C7.664 19.887 7.664 18.54 8.25 17.448L13.074 8.598C13.631 7.591 14.673 7 15.825 7H16.175ZM16.175 9.45H15.825C15.413 9.45 15.019 9.695 14.812 10.081L10.013 18.895C9.797 19.299 9.797 19.784 10.013 20.188L12.502 24.628C12.709 25.014 13.103 25.259 13.524 25.259H18.249C18.679 25.259 19.065 25.014 19.271 24.628L21.76 20.188C21.984 19.784 21.984 19.299 21.76 18.895L16.97 10.081C16.764 9.695 16.369 9.45 15.949 9.45H16.175ZM16.017 14.458C16.129 14.458 16.242 14.483 16.354 14.534C16.458 14.584 16.563 14.652 16.643 14.754L18.781 17.687C19.047 18.045 19.014 18.549 18.714 18.864L16.601 21.019C16.396 21.236 16.116 21.358 15.827 21.358C15.529 21.358 15.249 21.236 15.044 21.019L12.931 18.864C12.64 18.549 12.598 18.045 12.873 17.679L15.011 14.745C15.216 14.534 15.52 14.431 15.811 14.464L16.017 14.458Z" fill="white"/>
</svg>
