<svg width="32" height="32" viewBox="0 0 32 32" fill="none" xmlns="http://www.w3.org/2000/svg">
  <circle cx="16" cy="16" r="16" fill="#8247E5"/>
  <path d="M21.44 12.064c-.352-.208-.832-.208-1.2 0l-3.056 1.76-2.064 1.184-3.056 1.76c-.352.192-.832.192-1.2 0l-2.368-1.376c-.352-.208-.592-.592-.592-1.024V11.04c0-.416.224-.8.592-1.024l2.352-1.36a1.359 1.359 0 0 1 1.2 0L14.4 10.016c.352.208.592.592.592 1.024v1.76l2.064-1.2v-1.76c0-.416-.224-.8-.592-1.024l-4.16-2.432c-.352-.208-.832-.208-1.2 0L6.944 8.816c-.384.224-.624.608-.624 1.024v4.848c0 .416.224.8.592 1.024l4.192 2.416c.352.208.832.208 1.2 0l3.056-1.744 2.064-1.2 3.056-1.744c.352-.208.832-.208 1.2 0l2.352 1.36c.352.208.592.592.592 1.024v2.32c0 .416-.224.8-.592 1.024l-2.352 1.376c-.352.208-.832.208-1.2 0l-2.352-1.376c-.352-.208-.592-.592-.592-1.024v-1.76l-2.064 1.2v1.76c0 .416.224.8.592 1.024l4.176 2.416c.352.208.832.208 1.2 0l4.176-2.416c.352-.208.592-.592.592-1.024v-4.848c0-.416-.224-.8-.592-1.024l-4.176-2.416z" fill="#fff"/>
</svg>
